<?xml version="1.0" encoding="UTF-8"?>
<svg version="1.1" xmlns="http://www.w3.org/2000/svg" width="512" height="512">
<path d="M0 0 C7.55217873 6.95557116 14.29744897 16.14273309 15.18847656 26.79321289 C15.46076258 40.87451619 14.93557772 51.35110266 6.02734375 62.8671875 C5.18171875 63.6921875 4.33609375 64.5171875 3.46484375 65.3671875 C2.99046875 66.1921875 2.51609375 67.0171875 2.02734375 67.8671875 C4.39081349 76.44163586 8.10284947 84.64188057 11.46484375 92.8671875 C12.12416883 94.48615441 12.78326037 96.10521645 13.44213867 97.72436523 C15.24889596 102.16200208 17.0594146 106.59809552 18.87072754 111.03387451 C20.45103096 114.90507585 22.02932667 118.77709459 23.60771179 122.64907837 C32.43169521 144.29437997 41.27759651 165.93071816 50.13101196 187.56399536 C56.10504218 202.16156018 62.06852779 216.76340601 68.02734375 231.3671875 C76.238449 251.49038093 84.46248334 271.60825279 92.6946106 291.72285461 C94.94527036 297.22233898 97.19517462 302.72213164 99.44433594 308.222229 C100.20795079 310.08956189 100.97162266 311.95687147 101.73535156 313.82415771 C103.61739997 318.42571382 105.49882184 323.02752389 107.37890625 327.62988281 C110.75288025 335.88603588 114.13488146 344.13860684 117.54812622 352.37861633 C119.05909207 356.02639878 120.56661512 359.67560031 122.07415771 363.32479858 C122.78758896 365.04844282 123.50293322 366.77129659 124.22027588 368.49331665 C125.20486858 370.85693768 126.18315615 373.22307645 127.16015625 375.58984375 C127.45293457 376.28760925 127.74571289 376.98537476 128.04736328 377.70428467 C129.23476697 380.5957618 130.02734375 382.70768501 130.02734375 385.8671875 C141.57734375 385.8671875 153.12734375 385.8671875 165.02734375 385.8671875 C165.02734375 395.7671875 165.02734375 405.6671875 165.02734375 415.8671875 C36.32734375 415.8671875 -92.37265625 415.8671875 -224.97265625 415.8671875 C-224.97265625 405.9671875 -224.97265625 396.0671875 -224.97265625 385.8671875 C-213.42265625 385.8671875 -201.87265625 385.8671875 -189.97265625 385.8671875 C-189.64265625 384.2171875 -189.31265625 382.5671875 -188.97265625 380.8671875 C-188.09780372 378.49577872 -187.19030432 376.16645813 -186.2265625 373.83203125 C-185.94438873 373.13847534 -185.66221497 372.44491943 -185.37149048 371.73034668 C-184.43027947 369.42004081 -183.4827308 367.11238987 -182.53515625 364.8046875 C-181.86135543 363.1545332 -181.18794295 361.50422029 -180.51489258 359.85375977 C-178.70939227 355.42949708 -176.89842015 351.00749369 -175.08630371 346.5859375 C-173.25633224 342.11842413 -171.43116404 337.64894964 -169.60546875 333.1796875 C-165.82884879 323.93729682 -162.04619435 314.69738414 -158.26220703 305.45800781 C-154.53864488 296.36607135 -150.81798398 287.27294783 -147.09765625 278.1796875 C-146.72990082 277.2808786 -146.36214539 276.3820697 -145.98324585 275.45602417 C-139.54742175 259.72594001 -133.12357345 243.99098219 -126.70269775 228.25479126 C-120.43292 212.88923561 -114.15403508 197.52743542 -107.86816406 182.16845703 C-103.58612225 171.70523307 -99.30732305 161.24069781 -95.03515625 150.7734375 C-94.61859772 149.75311935 -94.20203918 148.73280121 -93.77285767 147.68156433 C-91.6727776 142.53677047 -89.57508025 137.39102707 -87.48193359 132.2434082 C-83.68362221 122.90923818 -79.86671794 113.58453375 -75.96490479 104.2930603 C-74.24421798 100.19384681 -72.53421299 96.09021465 -70.82470703 91.98632812 C-70.01201227 90.04465709 -69.19372066 88.1053184 -68.36962891 86.16845703 C-67.23647239 83.50458601 -66.1222066 80.83353922 -65.01171875 78.16015625 C-64.6712149 77.37404465 -64.33071106 76.58793304 -63.97988892 75.77799988 C-62.22754691 71.72285542 -62.22754691 71.72285542 -62.69726562 67.4765625 C-63.11814453 66.94546875 -63.53902344 66.414375 -63.97265625 65.8671875 C-64.64941406 64.85591797 -64.64941406 64.85591797 -65.33984375 63.82421875 C-65.83742187 63.11652344 -66.335 62.40882813 -66.84765625 61.6796875 C-74.74295003 49.98152605 -76.26980035 38.7423531 -74.97265625 24.8671875 C-72.25089228 12.91827749 -64.95222167 2.900238 -54.97265625 -4.1328125 C-37.09562269 -14.39101897 -15.96117045 -13.45010024 0 0 Z M-31.97265625 79.8671875 C-35.43417947 87.34682374 -38.69064829 94.88760722 -41.80078125 102.51953125 C-42.23525574 103.58208633 -42.66973022 104.64464142 -43.11737061 105.73939514 C-44.02595132 107.96326972 -44.93343052 110.18759463 -45.83984375 112.41235352 C-47.22943683 115.82132171 -48.62428616 119.22810742 -50.01953125 122.63476562 C-50.90526389 124.80455854 -51.79069154 126.97447599 -52.67578125 129.14453125 C-53.09241028 130.1611937 -53.50903931 131.17785614 -53.93829346 132.22532654 C-54.32249451 133.17053665 -54.70669556 134.11574677 -55.10253906 135.08959961 C-55.60953339 136.33222816 -55.60953339 136.33222816 -56.12677002 137.59996033 C-57.11504786 140.11974879 -57.11504786 140.11974879 -57.97265625 143.8671875 C-39.49265625 143.8671875 -21.01265625 143.8671875 -1.97265625 143.8671875 C-6.64300293 131.41292968 -11.35858024 118.99408894 -16.26831055 106.63452148 C-17.12230278 104.4741137 -17.96850026 102.31061048 -18.80737305 100.14428711 C-20.03266751 96.98302268 -21.28293206 93.83271044 -22.5390625 90.68359375 C-22.91003555 89.71088028 -23.28100861 88.73816681 -23.66322327 87.73597717 C-24.02387375 86.84672043 -24.38452423 85.95746368 -24.75610352 85.04125977 C-25.06443619 84.2567897 -25.37276886 83.47231964 -25.69044495 82.66407776 C-26.88499359 80.59657707 -26.88499359 80.59657707 -29.6111908 80.10630798 C-30.7801162 79.98794334 -30.7801162 79.98794334 -31.97265625 79.8671875 Z M-70.97265625 173.8671875 C-71.96265625 177.1671875 -72.95265625 180.4671875 -73.97265625 183.8671875 C-66.91583402 189.92761456 -59.78901576 195.86079629 -52.44824219 201.57470703 C-45.19915193 207.22657434 -38.09108518 213.05226309 -30.97265625 218.8671875 C-28.20610207 217.57610369 -25.92303558 216.1607071 -23.57421875 214.21484375 C-22.61841919 213.42932129 -22.61841919 213.42932129 -21.64331055 212.62792969 C-20.96824463 212.06750977 -20.29317871 211.50708984 -19.59765625 210.9296875 C-18.1596414 209.74773948 -16.72082453 208.56676663 -15.28125 207.38671875 C-14.55921387 206.79455566 -13.83717773 206.20239258 -13.09326172 205.59228516 C-9.98038134 203.05997883 -6.82423099 200.58502407 -3.66015625 198.1171875 C2.3095338 193.45485278 8.18859345 188.69309336 14.02734375 183.8671875 C13.03734375 180.5671875 12.04734375 177.2671875 11.02734375 173.8671875 C-16.03265625 173.8671875 -43.09265625 173.8671875 -70.97265625 173.8671875 Z M-86.97265625 213.8671875 C-90.91051227 223.29639622 -94.84265172 232.72796508 -98.76679993 242.16288757 C-100.52776475 246.396577 -102.29030018 250.62959381 -104.05712891 254.86083984 C-105.70246286 258.80153198 -107.34259544 262.74434993 -108.97894287 266.68878174 C-109.59885792 268.18056786 -110.22063898 269.67157995 -110.84429932 271.1618042 C-111.71363768 273.23997239 -112.57635154 275.32077119 -113.4375 277.40234375 C-113.92855225 278.5819165 -114.41960449 279.76148926 -114.92553711 280.97680664 C-116.14296334 283.82492094 -116.14296334 283.82492094 -115.97265625 286.8671875 C-113.20610207 285.57610369 -110.92303558 284.1607071 -108.57421875 282.21484375 C-107.61902344 281.42980469 -107.61902344 281.42980469 -106.64453125 280.62890625 C-105.63132812 279.78779297 -105.63132812 279.78779297 -104.59765625 278.9296875 C-103.1531215 277.74254258 -101.70779532 276.55636008 -100.26171875 275.37109375 C-99.53887695 274.77828613 -98.81603516 274.18547852 -98.07128906 273.57470703 C-95.06930674 271.1321914 -92.02519793 268.74599782 -88.97265625 266.3671875 C-82.48099116 261.29842975 -76.09055216 256.11017305 -69.70703125 250.90625 C-65.15371925 247.19537034 -60.56912881 243.52447697 -55.97265625 239.8671875 C-57.51656865 235.60163465 -60.7247219 233.43322316 -64.22265625 230.8046875 C-65.48201731 229.83886297 -66.74112404 228.87270674 -68 227.90625 C-68.65081543 227.4102832 -69.30163086 226.91431641 -69.97216797 226.40332031 C-71.98870786 224.85486181 -73.98525414 223.28386942 -75.9765625 221.703125 C-76.6149707 221.196604 -77.25337891 220.69008301 -77.91113281 220.16821289 C-79.14694384 219.18661573 -80.38198809 218.20405232 -81.61621094 217.22045898 C-84.03031124 214.90245531 -84.03031124 214.90245531 -86.97265625 213.8671875 Z M18.83984375 219.6796875 C11.31338433 225.84398059 3.69932326 231.88544098 -3.97265625 237.8671875 C-2.65055334 240.8790477 -1.33876122 242.67258881 1.23046875 244.71484375 C1.87371094 245.23175781 2.51695312 245.74867188 3.1796875 246.28125 C4.21802734 247.09722656 4.21802734 247.09722656 5.27734375 247.9296875 C6.35435547 248.79013672 6.35435547 248.79013672 7.453125 249.66796875 C9.63789716 251.40962134 11.83087773 253.14031424 14.02734375 254.8671875 C14.64287109 255.35171387 15.25839844 255.83624023 15.89257812 256.33544922 C18.16818467 258.12497295 20.44534406 259.91245843 22.7265625 261.69482422 C27.28603372 265.26304985 31.78813338 268.89858616 36.27734375 272.5546875 C36.95039551 273.10213623 37.62344727 273.64958496 38.31689453 274.21362305 C41.28051741 276.62544166 44.24039387 279.04151859 47.19140625 281.46875 C48.08601563 282.19835937 48.980625 282.92796875 49.90234375 283.6796875 C50.66289062 284.30488281 51.4234375 284.93007813 52.20703125 285.57421875 C53.92696956 287.06021575 53.92696956 287.06021575 56.02734375 286.8671875 C55.421655 283.41239423 54.53478649 280.34583375 53.20483398 277.10302734 C52.83031601 276.18371429 52.45579803 275.26440125 52.06993103 274.31723022 C51.66271317 273.3308255 51.2554953 272.34442078 50.8359375 271.328125 C50.20063866 269.7749205 50.20063866 269.7749205 49.55250549 268.19033813 C48.19411624 264.87256331 46.82946454 261.55740338 45.46484375 258.2421875 C44.57317943 256.06526316 43.68189957 253.88818131 42.79101562 251.7109375 C37.61009355 239.06506555 32.35891613 226.45026301 27.02734375 213.8671875 C24.41527037 213.8671875 20.90881632 217.9742153 18.83984375 219.6796875 Z M-37.84765625 264.6796875 C-39.01372927 265.70138642 -40.18176092 266.7208535 -41.3515625 267.73828125 C-42.25092529 268.52307861 -42.25092529 268.52307861 -43.16845703 269.32373047 C-45.97053321 271.72085166 -48.87122771 273.98341512 -51.78515625 276.2421875 C-56.89985095 280.22179523 -61.9530443 284.26828995 -66.97265625 288.3671875 C-71.93491214 292.41711104 -76.92455254 296.42477646 -81.97265625 300.3671875 C-87.19373898 304.45089275 -92.37902812 308.57671528 -97.53515625 312.7421875 C-98.53579102 313.5455957 -98.53579102 313.5455957 -99.55664062 314.36523438 C-100.19021484 314.87892578 -100.82378906 315.39261719 -101.4765625 315.921875 C-102.03158447 316.37030762 -102.58660645 316.81874023 -103.15844727 317.28076172 C-105.5365033 319.36024067 -107.73889449 321.63342574 -109.97265625 323.8671875 C-57.17265625 323.8671875 -4.37265625 323.8671875 50.02734375 323.8671875 C46.47065201 320.31049576 42.927285 316.96570892 39.08984375 313.7421875 C38.24450073 313.0294165 38.24450073 313.0294165 37.38208008 312.30224609 C32.82086165 308.48076979 28.16557869 304.78981983 23.47094727 301.13427734 C18.94150079 297.60314005 14.47579635 293.9996897 10.02734375 290.3671875 C4.51255569 285.86631723 -1.03969134 281.42180162 -6.66162109 277.05541992 C-9.91012203 274.52277688 -13.10365699 271.93782787 -16.26171875 269.29296875 C-16.98359375 268.69226563 -17.70546875 268.0915625 -18.44921875 267.47265625 C-19.85453281 266.29985779 -21.25328982 265.11914583 -22.64453125 263.9296875 C-23.28132813 263.39988281 -23.918125 262.87007813 -24.57421875 262.32421875 C-25.13447754 261.84960205 -25.69473633 261.37498535 -26.27197266 260.88598633 C-31.25124785 257.90313887 -34.32083223 261.48628732 -37.84765625 264.6796875 Z M-143.97265625 353.8671875 C-144.92995909 355.92545114 -145.88550954 357.98452987 -146.84033203 360.04394531 C-147.37264435 361.19050598 -147.90495667 362.33706665 -148.45339966 363.51837158 C-150.40899608 367.82898801 -152.16434469 372.19466895 -153.84765625 376.6171875 C-154.15445313 377.40867187 -154.46125 378.20015625 -154.77734375 379.015625 C-156.29856516 382.35237218 -156.29856516 382.35237218 -156.97265625 385.8671875 C-73.15265625 385.8671875 10.66734375 385.8671875 97.02734375 385.8671875 C92.45618553 373.61229894 92.45618553 373.61229894 87.71484375 361.4296875 C87.46412109 360.79482422 87.21339844 360.15996094 86.95507812 359.50585938 C85.87166666 356.45607363 85.87166666 356.45607363 84.02734375 353.8671875 C81.09429647 353.76921685 78.18478987 353.73726946 75.25132751 353.74693298 C74.31942315 353.74607856 73.38751879 353.74522413 72.4273749 353.74434382 C69.27960782 353.74268616 66.13189309 353.74821503 62.98413086 353.75366211 C60.73770652 353.75394395 58.49128208 353.75378632 56.24485779 353.7532196 C50.12526946 353.75293149 44.00570054 353.75883044 37.88611674 353.76579356 C31.49858748 353.77202481 25.11105783 353.77263072 18.723526 353.77381897 C7.99561156 353.77657868 -2.73229436 353.78283421 -13.46020508 353.79174805 C-24.51196253 353.80092144 -35.56371803 353.80800263 -46.61547852 353.81225586 C-47.29625078 353.81251858 -47.97702305 353.81278131 -48.67842478 353.81305199 C-52.09352238 353.81435699 -55.50862 353.81562071 -58.92371762 353.81686389 C-87.27336876 353.82723738 -115.62301212 353.84493058 -143.97265625 353.8671875 Z " fill="#595A5A" transform="translate(285.97265625,96.1328125)"/>
<path d="M0 0 C3.04086266 3.54834286 4.61461657 7.56089635 6.30859375 11.85546875 C6.78613098 13.04422859 6.78613098 13.04422859 7.27331543 14.25700378 C7.96702257 15.98570576 8.6580225 17.71549598 9.34664917 19.44622803 C10.84561793 23.21308682 12.35790739 26.97455394 13.86927795 30.7364502 C14.6732813 32.73805343 15.47660191 34.73993102 16.27928162 36.74206543 C20.78359755 47.97282425 25.35903983 59.17431262 29.9375 70.375 C30.78643447 72.45334565 31.63531122 74.53171487 32.48413086 76.61010742 C38.71986296 91.87666276 44.96460495 107.13953492 51.21069336 122.40185547 C56.8153382 136.0978902 62.40925661 149.79828552 68 163.5 C76.21110525 183.62319343 84.43513959 203.74106529 92.66726685 223.85566711 C94.91792661 229.35515148 97.16783087 234.85494414 99.41699219 240.3550415 C100.18060704 242.22237439 100.94427891 244.08968397 101.70800781 245.95697021 C103.59005622 250.55852632 105.47147809 255.16033639 107.3515625 259.76269531 C110.7255365 268.01884838 114.10753771 276.27141934 117.52078247 284.51142883 C119.03174832 288.15921128 120.53927137 291.80841281 122.04681396 295.45761108 C122.76024521 297.18125532 123.47558947 298.90410909 124.19293213 300.62612915 C125.17752483 302.98975018 126.1558124 305.35588895 127.1328125 307.72265625 C127.42559082 308.42042175 127.71836914 309.11818726 128.02001953 309.83709717 C129.20742322 312.7285743 130 314.84049751 130 318 C119.11 318 108.22 318 97 318 C92.36327282 307.7992002 88.16149104 297.4037276 84 287 C46.38 286.67 8.76 286.34 -30 286 C-30 276.1 -30 266.2 -30 256 C-3.93 255.67 22.14 255.34 49 255 C35.35422307 243.76107112 35.35422307 243.76107112 21.52734375 232.77734375 C17.64382293 229.73516115 13.82152283 226.61947055 10 223.5 C5.03767327 219.45017583 0.04833264 215.44211567 -5 211.5 C-10.29280816 207.36470597 -15.53446022 203.16985903 -20.75 198.9375 C-21.44222656 198.37675781 -22.13445312 197.81601562 -22.84765625 197.23828125 C-23.49089844 196.71492187 -24.13414062 196.1915625 -24.796875 195.65234375 C-25.65297363 194.95612915 -25.65297363 194.95612915 -26.52636719 194.24584961 C-29.96694551 191.3370903 -29.96694551 191.3370903 -30.36987305 187.22802734 C-30.43067286 185.59777877 -30.47692211 183.9669483 -30.51171875 182.3359375 C-30.53023392 181.46989899 -30.54874908 180.60386047 -30.56782532 179.71157837 C-30.59990613 177.87406114 -30.62553632 176.03642184 -30.64526367 174.19873047 C-30.67326656 172.32658353 -30.72090542 170.4546204 -30.78881836 168.58349609 C-31.34812683 153.12798415 -31.34812683 153.12798415 -28.1784668 148.12475586 C-25.89466445 146.07543707 -23.64838453 144.53890784 -21 143 C-19.85895394 142.10839769 -18.73080272 141.19984667 -17.62109375 140.26953125 C-16.56193339 139.44788752 -15.50070323 138.62890552 -14.4375 137.8125 C-8.32977762 133.07055347 -2.31533111 128.22253891 3.67016602 123.32739258 C4.62620728 122.54658325 4.62620728 122.54658325 5.6015625 121.75 C6.44195068 121.06164062 6.44195068 121.06164062 7.29931641 120.359375 C9.16790888 118.86578859 11.08627054 117.4352971 13 116 C12.01 111.05 12.01 111.05 11 106 C-2.53 106 -16.06 106 -30 106 C-30 96.1 -30 86.2 -30 76 C-21.09 75.67 -12.18 75.34 -3 75 C-4.30195313 71.7928125 -5.60390625 68.585625 -6.9453125 65.28125 C-8.2267365 62.12048207 -9.50744376 58.95942461 -10.78808594 55.79833984 C-11.66787363 53.62778986 -12.54838785 51.45753419 -13.4296875 49.28759766 C-18.45297147 36.91776088 -23.41274137 24.53897098 -28 12 C-26.94071289 11.74428223 -25.88142578 11.48856445 -24.79003906 11.22509766 C-15.33520975 8.9103117 -7.79939415 5.96627712 0 0 Z M18.8125 151.8125 C11.28604058 157.97679309 3.67197951 164.01825348 -4 170 C-2.67789709 173.0118602 -1.36610497 174.80540131 1.203125 176.84765625 C1.84636719 177.36457031 2.48960937 177.88148438 3.15234375 178.4140625 C4.19068359 179.23003906 4.19068359 179.23003906 5.25 180.0625 C6.32701172 180.92294922 6.32701172 180.92294922 7.42578125 181.80078125 C9.61055341 183.54243384 11.80353398 185.27312674 14 187 C14.61552734 187.48452637 15.23105469 187.96905273 15.86523438 188.46826172 C18.14084092 190.25778545 20.41800031 192.04527093 22.69921875 193.82763672 C27.25868997 197.39586235 31.76078963 201.03139866 36.25 204.6875 C36.92305176 205.23494873 37.59610352 205.78239746 38.28955078 206.34643555 C41.25317366 208.75825416 44.21305012 211.17433109 47.1640625 213.6015625 C48.05867188 214.33117187 48.95328125 215.06078125 49.875 215.8125 C50.63554687 216.43769531 51.39609375 217.06289063 52.1796875 217.70703125 C53.89962581 219.19302825 53.89962581 219.19302825 56 219 C55.39431125 215.54520673 54.50744274 212.47864625 53.17749023 209.23583984 C52.80297226 208.31652679 52.42845428 207.39721375 52.04258728 206.45004272 C51.63536942 205.463638 51.22815155 204.47723328 50.80859375 203.4609375 C50.17329491 201.907733 50.17329491 201.907733 49.52516174 200.32315063 C48.16677249 197.00537581 46.80212079 193.69021588 45.4375 190.375 C44.54583568 188.19807566 43.65455582 186.02099381 42.76367188 183.84375 C37.5827498 171.19787805 32.33157238 158.58307551 27 146 C24.38792662 146 20.88147257 150.1070278 18.8125 151.8125 Z " fill="#444444" transform="translate(286,164)"/>
<path d="M0 0 C128.7 0 257.4 0 390 0 C390 9.9 390 19.8 390 30 C261.3 30 132.6 30 0 30 C0 20.1 0 10.2 0 0 Z " fill="#00AB5E" transform="translate(61,482)"/>
<path d="M0 0 C2.61260123 1.02326099 3.29379197 2.12508902 4.77270508 4.48974609 C5.2604541 5.26165283 5.74820313 6.03355957 6.25073242 6.82885742 C7.01184326 8.08218872 7.01184326 8.08218872 7.78833008 9.36083984 C8.58231201 10.64607544 8.58231201 10.64607544 9.39233398 11.95727539 C14.0980945 19.68224384 18.25590592 27.58669917 22.03833008 35.79833984 C22.55782227 36.90951172 23.07731445 38.02068359 23.61254883 39.16552734 C29.87105822 53.1280811 34.56462645 67.67502563 37.85083008 82.61083984 C38.14292358 83.93233032 38.14292358 83.93233032 38.44091797 85.28051758 C41.56180064 100.26652619 42.44582821 114.97615927 42.41333008 130.23583984 C42.41311859 131.15665344 42.4129071 132.07746704 42.41268921 133.02618408 C42.37852153 147.97673185 41.36645451 162.17615102 38.03833008 176.79833984 C37.84577637 177.68553711 37.65322266 178.57273438 37.45483398 179.48681641 C29.41015946 216.14149883 12.39015322 249.32638501 -11.96166992 277.79833984 C-17.8612706 273.63988206 -23.16308328 268.98102542 -28.44604492 264.06787109 C-30.54919672 262.17046241 -32.66261124 260.447431 -34.96166992 258.79833984 C-34.07016327 254.35647877 -31.60716698 251.38726179 -28.89916992 247.86083984 C-16.49921746 231.29681406 -6.58635756 213.39921977 0.03833008 193.79833984 C0.25972656 193.16637695 0.48112305 192.53441406 0.70922852 191.88330078 C6.38265633 175.6294716 10.08698346 158.0469088 10.27661133 140.80224609 C10.28635986 140.0597612 10.2961084 139.31727631 10.30615234 138.55229187 C10.5529612 114.84830635 8.84107259 92.36592483 1.03833008 69.79833984 C0.81419434 69.13576172 0.59005859 68.47318359 0.35913086 67.79052734 C-4.97131155 52.20171058 -12.6752248 37.98626584 -20.96166992 23.79833984 C-22.2995274 21.46755944 -23.63085503 19.13315447 -24.96166992 16.79833984 C-20.64837298 13.43829504 -16.31338835 10.10844312 -11.96166992 6.79833984 C-10.98842773 6.05326172 -10.01518555 5.30818359 -9.01245117 4.54052734 C-8.15006836 3.90373047 -7.28768555 3.26693359 -6.39916992 2.61083984 C-5.63475586 2.03978516 -4.8703418 1.46873047 -4.08276367 0.88037109 C-1.96166992 -0.20166016 -1.96166992 -0.20166016 0 0 Z " fill="#0095FF" transform="translate(438.961669921875,0.20166015625)"/>
<path d="M0 0 C3.17738263 0.61734532 5.29753864 1.68537243 7.93359375 3.546875 C9.0309082 4.3203125 9.0309082 4.3203125 10.15039062 5.109375 C10.90513672 5.65078125 11.65988281 6.1921875 12.4375 6.75 C13.56381836 7.53890625 13.56381836 7.53890625 14.71289062 8.34375 C18.8550042 11.28731005 22.53539372 14.28054197 26 18 C24.948125 19.670625 24.948125 19.670625 23.875 21.375 C5.33634046 51.08342328 -8.98090247 84.55365011 -9.203125 120.171875 C-9.21013931 120.92794037 -9.21715363 121.68400574 -9.22438049 122.46298218 C-9.2417979 124.89204935 -9.24823356 127.32087266 -9.25 129.75 C-9.25067474 130.58013611 -9.25134949 131.41027222 -9.25204468 132.26556396 C-9.23593704 144.73046917 -8.82887161 156.80788605 -6 169 C-5.81244141 169.81049805 -5.62488281 170.62099609 -5.43164062 171.45605469 C-4.10823521 177.01735545 -2.61064866 182.51562269 -1 188 C-0.69320312 189.06347656 -0.38640625 190.12695312 -0.0703125 191.22265625 C7.01859712 214.0263611 19.28784512 236.04214957 34.8828125 254.09765625 C36 256 36 256 35.74975586 257.94360352 C34.88969896 260.30252871 34.03306243 261.20552305 32.12109375 262.8046875 C31.53279785 263.30323242 30.94450195 263.80177734 30.33837891 264.31542969 C29.71108887 264.83008789 29.08379883 265.34474609 28.4375 265.875 C27.80505371 266.40512695 27.17260742 266.93525391 26.52099609 267.48144531 C22.12470733 271.14295635 17.64388439 274.65640324 13 278 C-12.77445212 249.31552909 -29.19387414 213.69452028 -37.25 176.1875 C-37.40114258 175.48423584 -37.55228516 174.78097168 -37.70800781 174.05639648 C-38.18268862 171.71004819 -38.60108131 169.36047084 -39 167 C-39.17877686 165.94844727 -39.35755371 164.89689453 -39.54174805 163.81347656 C-41.19062428 152.98744731 -41.35796559 142.30607011 -41.3125 131.375 C-41.31034485 130.44358185 -41.3081897 129.5121637 -41.30596924 128.55252075 C-41.25612602 115.14023034 -40.87699947 102.14455195 -38 89 C-37.80664062 88.05060547 -37.61328125 87.10121094 -37.4140625 86.12304688 C-32.93086682 64.32973453 -25.70552458 43.52806163 -15 24 C-14.66613281 23.38447266 -14.33226563 22.76894531 -13.98828125 22.13476562 C-9.78377916 14.4265118 -5.21378727 7.07119899 0 0 Z " fill="#00ABE9" transform="translate(72,0)"/>
<path d="M0 0 C7.55217873 6.95557116 14.29744897 16.14273309 15.18847656 26.79321289 C15.46232723 40.95543223 14.84772606 51.24326069 6.02734375 62.8671875 C5.40988281 63.70507812 4.79242188 64.54296875 4.15625 65.40625 C-2.49446932 73.09423747 -13.94845775 78.42485678 -23.97265625 79.8671875 C-39.58101987 80.09269533 -52.08074995 76.56412105 -63.97265625 65.8671875 C-73.78156457 54.38607443 -75.87006015 41.82706737 -75.19482422 27.24365234 C-74.06009936 15.1058372 -66.30749182 5.00074074 -57.1953125 -2.56640625 C-39.63152527 -14.94440042 -16.34569776 -13.77413229 0 0 Z " fill="#0095FE" transform="translate(285.97265625,96.1328125)"/>
<path d="M0 0 C5.76578486 3.14989857 11.0988262 6.73809951 16.4375 10.5625 C17.26443359 11.13935547 18.09136719 11.71621094 18.94335938 12.31054688 C19.72388672 12.86935547 20.50441406 13.42816406 21.30859375 14.00390625 C22.01814209 14.50736572 22.72769043 15.0108252 23.45874023 15.52954102 C23.96735596 16.01479248 24.47597168 16.50004395 25 17 C25 20.28965323 24.53285009 21.10897227 22.83984375 23.81640625 C22.37908447 24.57131348 21.9183252 25.3262207 21.44360352 26.10400391 C20.94658936 26.91530762 20.4495752 27.72661133 19.9375 28.5625 C2.38837383 58.12396779 -3.29807743 94.60371424 4.67578125 128.2109375 C10.06169355 148.50435956 19.18804455 167.09532402 33 183 C29.34741192 192.04845684 17.51594905 199.16331939 10 205 C-14.29387864 181.69332844 -28.61112676 143.47284807 -30.17700195 110.24389648 C-30.81055877 70.20361031 -24.11832558 33.14585527 0 0 Z " fill="#00ABE9" transform="translate(121,34)"/>
<path d="M0 0 C13.12114246 16.13162104 21.96087838 35.89932657 27 56 C27.20882812 56.82532227 27.41765625 57.65064453 27.6328125 58.50097656 C33.19014974 81.6360308 33.66079201 108.84221449 28 132 C27.73316406 133.20785156 27.46632813 134.41570312 27.19140625 135.66015625 C21.81784138 157.99030361 12.11344356 178.87568466 -2 197 C-3.16880355 198.56090218 -4.33566348 200.12326286 -5.5 201.6875 C-6.33248141 202.79230911 -7.16545117 203.89675174 -8 205 C-12.99937288 201.97406378 -17.14790364 198.26805485 -21.453125 194.328125 C-24.9183592 191.16051828 -28.45594277 188.07877597 -32 185 C-30.70712701 182.23905161 -29.2727631 179.94265539 -27.375 177.5625 C-16.50621948 163.1851083 -8.33350723 146.52244229 -4 129 C-3.70222656 127.84886719 -3.40445312 126.69773437 -3.09765625 125.51171875 C5.17131472 87.59639103 -4.57322367 50.18764754 -25 18 C-16.88797283 11.61504958 -8.68150075 5.59995904 0 0 Z " fill="#0095FF" transform="translate(390,34)"/>
<path d="M0 0 C64.35 0 128.7 0 195 0 C195 9.9 195 19.8 195 30 C130.65 30 66.3 30 0 30 C0 20.1 0 10.2 0 0 Z " fill="#00CC71" transform="translate(61,482)"/>
<path d="M0 0 C5.82074771 3.15648601 11.10175226 6.83740496 16.4375 10.75 C17.67790039 11.65298828 17.67790039 11.65298828 18.94335938 12.57421875 C20.96457777 14.04632001 22.98336762 15.52162606 25 17 C24.35262997 20.53342494 23.57030346 23.05888663 21.6875 26.125 C12.20608868 42.59415666 10.05938637 62.66351211 14.5625 81.0625 C17.97098554 91.89016256 23.36277334 101.80999386 30 111 C24.79843249 115.7728049 19.5348852 120.46385131 14.125 125 C13.24070313 125.7425 12.35640625 126.485 11.4453125 127.25 C9.17543937 128.87444595 7.72437324 129.59451189 5 130 C-15.02497308 105.52503291 -20.72707747 78.21990675 -19 47 C-17.48454544 32.11726183 -10.84922289 10.84922289 0 0 Z " fill="#00ABE9" transform="translate(170,69)"/>
<path d="M0 0 C3.89816447 3.42083821 6.06877007 7.28220881 8.4375 11.8125 C8.83074463 12.56225098 9.22398926 13.31200195 9.62915039 14.08447266 C21.51907684 37.37371585 24.58874997 66.84820861 16.68457031 91.95703125 C11.93864004 106.12034956 5.52379779 118.39085596 -4 130 C-7.2328294 129.40706387 -9.01821542 128.41229024 -11.4609375 126.234375 C-12.09773438 125.67363281 -12.73453125 125.11289063 -13.390625 124.53515625 C-14.04546875 123.94605469 -14.7003125 123.35695313 -15.375 122.75 C-16.67403893 121.59846151 -17.97351266 120.44741332 -19.2734375 119.296875 C-19.89702148 118.74193359 -20.52060547 118.18699219 -21.16308594 117.61523438 C-23.73224711 115.35612083 -26.3592197 113.17476024 -29 111 C-28.34644531 110.01773438 -28.34644531 110.01773438 -27.6796875 109.015625 C-15.02892415 89.6287409 -7.91108142 69.04921238 -12.765625 45.73046875 C-13.67774402 42.38965186 -14.72502171 39.21801028 -16 36 C-16.50273437 34.71416016 -16.50273437 34.71416016 -17.015625 33.40234375 C-18.52693028 29.8099951 -20.27513623 26.50609254 -22.3125 23.1875 C-24 20 -24 20 -23.83081055 17.98046875 C-22.77956434 15.47453009 -21.62996211 14.65029579 -19.39453125 13.125 C-18.28948242 12.35929687 -18.28948242 12.35929687 -17.16210938 11.578125 C-16.38673828 11.05734375 -15.61136719 10.5365625 -14.8125 10 C-14.05646484 9.47921875 -13.30042969 8.9584375 -12.52148438 8.421875 C-8.37514984 5.57374234 -4.19157162 2.78101084 0 0 Z " fill="#0095FF" transform="translate(341,69)"/>
<path d="M0 0 C0 30.03 0 60.06 0 91 C-13.96785961 89.73019458 -26.42947908 85.86112947 -35.87890625 74.80078125 C-44.36947924 62.60755236 -46.36358637 50.58587883 -45 36 C-42.27823603 24.05108999 -34.97956542 14.0330505 -25 7 C-17.26006579 2.55866789 -8.96332494 0 0 0 Z " fill="#00AAE8" transform="translate(256,85)"/>
</svg>
